<svg width="500" height="565" viewBox="0 0 500 565" fill="none" xmlns="http://www.w3.org/2000/svg">
<path d="M279.973 415.398C349.636 417.716 375.387 395.447 390.108 374.379C386.287 369.654 380.3 365.029 372.01 360.9C350.44 350.141 327.289 344.342 303.401 345.59C290.622 346.257 263.185 351.592 239.94 361.328C229.928 365.521 220.954 372.093 215.348 381.112C216.794 395.099 228.513 413.681 279.973 415.398" fill="#A8411F"/>
<path d="M240.813 429.848C261.531 440.737 307.923 445.917 350.869 429.848C367.485 423.627 375.613 417.862 391.9 396.282C396.755 389.851 396.274 381.984 390.114 374.374C375.394 395.442 349.642 417.712 279.979 415.393C228.519 413.676 216.8 395.094 215.354 381.107C212.587 385.561 210.577 390.577 209.805 396.282C207.32 414.569 226.149 422.132 240.813 429.848" fill="#90311D"/>
<path d="M351.551 386.888C344.462 386.637 338.198 393.022 340.317 395.287C343.757 398.963 349.985 396.237 353.237 393.637C356.635 390.923 356.317 387.055 351.551 386.888" fill="#90311D"/>
<path d="M235.185 375.573C231.636 375.447 228.509 378.636 229.563 379.77C231.286 381.607 234.402 380.249 236.026 378.95C237.722 377.588 237.566 375.657 235.185 375.573Z" fill="#90311D"/>
<path d="M278.083 381.413C268.327 393.064 282.975 398.613 292.7 399.182C301.214 399.679 309.916 398.227 317.809 395.012C322.972 392.907 335.662 388.544 333.02 381.945C328.839 371.49 285.365 372.726 278.083 381.413Z" fill="#90311D"/>
<path d="M267.502 385.537C265.289 382.613 251.717 380.504 250.015 387.003C248.861 391.393 258.785 391.928 261.583 391.818C264.589 391.691 270.582 389.609 267.502 385.537Z" fill="#90311D"/>
<path d="M339.642 364.798C338.969 363.915 334.861 363.273 334.344 365.247C333.999 366.572 337.001 366.736 337.847 366.699C338.76 366.662 340.577 366.03 339.642 364.798Z" fill="#90311D"/>
<path d="M364.6 373.756C361.786 369.837 351.768 369.021 349.158 373.528C346.438 378.226 354.592 378.836 358.361 378.511C362.068 378.189 368.087 378.612 364.6 373.756" fill="#90311D"/>
<path d="M328.566 359.003C326.755 356.481 320.308 355.959 318.622 358.856C316.878 361.878 322.119 362.276 324.547 362.066C326.932 361.858 330.811 362.13 328.566 359.003" fill="#90311D"/>
<path d="M302.149 258.272L304.033 252.479C304.033 252.479 308.465 242.989 311.978 231.321C314.197 223.972 315.8 206.729 317.157 199.353C318.42 192.504 331.731 186.642 347.773 175.873C363.809 165.109 369.739 136.763 369.739 136.763L356.866 132.807C356.866 132.807 347.773 165.176 337.902 170.496C328.03 175.82 311.498 189.048 307.927 187.873C302.796 186.193 288.555 168.33 284.238 161.33C279.916 154.323 266.349 117.825 266.349 117.401C266.349 116.983 260.179 115.929 262.032 122.23C262.277 123.076 262.841 124.559 263.608 126.459C264.407 126.235 265.059 126.219 265.373 126.636C268.724 131.041 282.646 163.251 285.533 169.566C288.409 175.877 302.081 191.032 306.085 199.869C310.099 208.707 303.313 222.286 299.064 238.385C294.825 254.483 288.816 268.688 281.106 264.897C273.391 261.106 261.369 240.275 256.739 228.278C252.114 216.287 247.488 201.764 244.711 195.807C241.934 189.847 233.3 180.3 229.907 171.142C229.672 170.496 229.531 169.907 229.353 169.295L229.338 169.258L229.056 168.298C228.659 166.671 228.492 165.202 228.45 163.871C227.855 157.415 227.662 147.454 228.106 144.154C228.722 139.546 234.401 111.31 234.401 111.31C234.401 111.31 225.637 111.508 223.784 117.401C221.936 123.296 219.467 156.334 218.229 157.784C217.003 159.246 204.657 158.229 199.724 157.784C194.791 157.352 186.778 148.695 186.778 148.695L183.688 152.55C183.688 152.55 191.81 165.343 199.724 163.944C216.235 161.036 237.283 187.665 242.347 199.661C247.41 211.657 252.218 232.277 257.715 244.424C259.677 248.772 266.965 256.718 272.968 268.076C278.982 279.44 282.239 282.997 283.059 291.41C283.607 296.985 283.226 311.247 283.675 318.137C284.421 329.48 288.441 382.999 288.441 382.999C296.459 395.944 310.762 386.141 311.545 383.923C312.333 381.708 300.917 329.674 299.064 322.135C297.216 314.599 295.744 296.569 295.958 289.228C296.224 279.795 300.504 269.187 305.062 264.689C311.305 258.513 330.5 252.927 335.433 251.663C337.881 251.037 340.026 245.588 341.712 239.757C336.492 243.855 331.074 246.731 326.751 248.798C317.501 253.219 302.149 258.272 302.149 258.272" fill="#83351B"/>
<path d="M361.047 211.732C364.586 210.103 380.398 193.509 394.299 181.345C404.583 172.347 414.444 166.829 414.444 166.829C414.444 166.829 413.17 162.846 411.855 161.462C405.392 167.695 389.977 181.382 383.321 187.24C376.895 192.903 367.781 200.315 361.047 211.732" fill="#83351B"/>
<path d="M353.394 205.254C341.137 208.091 342.008 232.573 337.122 239.228C332.241 245.884 304.021 252.483 304.021 252.483L302.137 258.271C302.137 258.271 317.489 253.223 326.739 248.802C331.062 246.741 336.48 243.859 341.7 239.761C343.418 233.841 344.671 227.53 345.292 225.452C346.524 221.333 355.779 213.158 360.712 211.896L361.036 211.739C367.77 200.322 376.884 192.91 383.31 187.247C389.966 181.388 405.381 167.702 411.844 161.468L410.732 161.04C394.904 169.355 365.645 202.426 353.394 205.254" fill="#A8411F"/>
<path d="M302.474 209.96C299.896 221.926 289.852 258.799 285.535 260.272C278.858 262.547 271.044 248.004 266.821 242.178C264.247 238.624 253.394 210.001 250.894 202.427C248.399 194.874 230.687 172.265 229.355 169.3C229.533 169.912 229.669 170.501 229.909 171.147C233.302 180.305 241.936 189.852 244.713 195.813C247.49 201.769 252.115 216.292 256.741 228.283C261.371 240.28 273.393 261.112 281.108 264.902C288.818 268.693 294.827 254.488 299.066 238.39C303.315 222.291 310.101 208.712 306.087 199.874C302.083 191.037 288.411 175.882 285.535 169.571C282.648 163.256 268.726 131.046 265.375 126.641C265.061 126.224 264.409 126.244 263.61 126.464C268.569 138.664 282.768 169.259 286.704 175.878C294.576 189.136 304.239 201.769 302.474 209.96" fill="#A8411F"/>
<path d="M246.192 36.4717C237.803 30.4529 228.887 34.2271 225.003 41.4518C223.395 39.0818 221.062 37.4636 217.57 37.5523C212.616 37.6881 210.22 41.9738 208.972 46.4527C206.122 41.3421 201.544 36.2264 196.005 38.9253C191.531 41.1021 191.855 45.5078 193.379 49.4543C188.613 47.3871 183.059 46.4736 179.676 51.3753C176.257 56.3345 180.057 62.6874 183.696 67.2133C176.993 80.0648 178.204 101.973 190.519 108.912C210.287 120.046 227.357 96.5349 234.509 81.1558C237.297 75.1631 239.677 68.9417 242.966 63.2042C245.341 59.0594 250.738 54.6275 251.965 50.0024C253.38 44.6465 250.404 39.4942 246.192 36.4717" fill="#099F6C"/>
<path d="M450.394 52.52C447.482 51.3455 439.939 54.2531 439.939 54.2531C439.939 54.2531 439.27 47.7436 437.814 46.0888C434.53 42.3407 430.427 42.4294 426.919 44.4235C425.75 34.8184 414.986 29.1598 409.923 37.5225C407.239 32.1509 402.296 27.4424 395.953 30.752C390.895 33.3829 390.853 38.697 391.929 43.7136C383.723 49.7272 380.434 65.4347 386.275 73.3955C391.621 80.6776 401.967 77.8227 409.5 77.796C417.231 77.7652 424.941 78.4423 432.573 79.7171C435.402 80.1921 440.137 82.0922 443.175 80.9177C452.519 77.3006 463.909 57.9855 450.394 52.52" fill="#099F6C"/>
<path d="M362.413 113.664C346.899 103.03 323.972 94.0989 306.083 104.101C294.979 110.312 288.632 123.66 291.675 135.756L291.294 135.917C274.423 153.003 298.294 175.868 315.197 162.885C315.938 169.953 318.084 177.544 325.382 179.599C329.542 180.774 333.63 179.656 336.193 176.808C339.455 183.119 344.023 189.277 351.54 189.126C356.786 189.022 360.952 185.99 362.356 181.365C375.955 186.5 389.042 177.163 391.516 162.071C394.815 141.983 377.218 123.817 362.413 113.664" fill="#099F6C"/>
<path d="M141.37 99.3098C133.941 111.275 144.815 132.323 163.863 129.044C163.211 141.616 170.957 148.114 180.557 147.863C187.547 149.534 197.94 141.958 198.943 135.459C204.768 141.616 218.445 141.616 221.927 129.416C234.195 134.656 246.686 128.221 249.223 113.969C258.38 120.186 274.254 119.383 280.09 108.147C294.211 113.969 300.632 104.296 303.174 94.858C310.701 99.754 327.453 98.0105 333.169 91.8768C333.169 103.459 346.449 112.654 361.039 107.113C358.852 114.334 372.216 124.644 383.314 118.255C385.438 130.831 402.07 130.831 406.058 126.304C410.767 133.632 424.611 134.385 429.596 126.304C430.943 130.831 438.496 131.21 440.798 127.662C460.489 152.525 484.178 136.738 489.372 113.765C487.581 111.807 484.59 110.199 479.72 109.415C480.999 106.775 482.706 103.82 481.641 100.745C479.255 93.8552 466.831 94.4707 458.996 94.8685C463.595 87.3561 467.499 76.9424 459.46 70.5618C453.979 66.2092 445.016 67.9789 436.627 71.2514C437.217 65.4836 435.239 58.7078 431.146 56.8129C427.873 55.2991 424.104 58.5251 422.136 60.9577C420.507 62.9623 419.469 65.4053 419.176 67.9162C412.416 65.1548 405.473 64.972 398.442 66.7208C400.603 59.1046 401.924 49.7866 396.51 43.6894C388.075 34.194 370.639 28.149 357.458 35.1544C353.58 24.996 343.552 19.1181 339.224 17.7243C332.407 15.5319 326.033 18.4394 321.685 23.6022C314.032 11.0686 298.272 -1.59027 284.078 0.163702C278.065 0.904966 271.743 4.57994 268.977 12.144C256.913 8.57859 246.112 7.01775 236.298 16.1269C229.904 22.057 228.938 37.5192 233.907 45.5165C230.206 46.4561 225.717 47.8081 221.369 51.0916C215.266 55.6958 216.19 65.3061 219.782 71.5552C216.634 71.753 213.538 72.9479 211.294 75.1827C209.592 76.8792 208.522 79.4893 209.148 81.9219C206.601 82.3667 204.09 82.8929 201.589 83.5511C201.537 74.4769 197.638 64.9981 187.944 63.0093C180.667 61.5163 174.048 65.4575 171.198 71.6163C167.001 65.5306 161.222 60.1121 153.637 62.5916C150.474 63.6305 148.031 65.7237 146.652 68.2921C147.044 72.7501 148.427 80.6372 153.428 85.2211C149.732 88.8183 143.39 96.0571 141.37 99.3098" fill="#05C887"/>
<path d="M128.567 77.2779C123.53 85.0612 125.116 93.8357 128.489 102.067C124.208 102.053 118.518 102.445 116.258 107.027C113.429 112.759 125.978 115.579 131.172 118.048C120.444 122.573 124.323 139.074 135.186 139.184C130.587 145.113 127.299 152.532 131.798 159.589C135.854 165.937 141.67 165.362 147.005 162.638C144.833 175.187 158.165 185.784 170.328 177.76C180.69 190.247 194.096 177.652 200.872 166.318C209.448 180.293 227.745 181.53 238.138 167.994C245.013 171.816 255.522 175.778 259.865 167.252C264.14 158.843 261.671 151.582 257.051 146.847C263.477 148.085 264.913 143.454 267.001 136.306C267.376 135.024 267.512 133.792 267.538 132.575C269.893 133.863 272.466 134.757 275.363 135.081C283.074 135.937 290.872 134.011 292.929 126.859C298.478 127.277 306.507 127.599 311.048 120.793C314.321 115.88 314.248 110.369 312.369 105.259C318.487 105.493 323.932 103.874 329.126 99.7554C324.203 110.071 330.52 121.462 340.835 124.912C336.836 130.848 338.773 141.423 344.358 146.931C349.197 151.702 366.862 162.574 372.897 155.199C374.212 158.535 376.828 161.125 380.451 160.827C382.685 160.633 384.867 159.265 386.584 157.35C389.361 161.045 399.948 162.173 406.207 159.662C405.204 166.239 407.413 173.135 412.184 178.626C415.473 182.411 420.891 183.994 424.728 184.521C420.087 194.403 419.779 203.037 422.791 208.732C425.761 214.37 432.412 217.403 438.478 216.874C448.427 216.004 463.801 202.937 461.212 191.569C476.021 191.369 493.206 185.027 496.338 168.49C497.502 162.356 495.038 155.209 491.551 150.005C500.279 147.881 506.147 133.17 488.878 128.957C490.147 126.957 494.224 119.05 489.38 113.772C484.185 136.745 460.496 152.532 440.806 127.669C438.504 131.217 430.95 130.838 429.604 126.311C424.618 134.392 410.774 133.639 406.066 126.311C402.078 130.838 385.446 130.838 383.322 118.262C372.224 124.651 358.86 114.341 361.047 107.121C346.457 112.661 333.177 103.466 333.177 91.8839C327.461 98.0176 310.709 99.7611 303.182 94.8651C300.639 104.303 294.219 113.976 280.098 108.154C274.262 119.39 258.387 120.193 249.231 113.976C246.694 128.228 234.202 134.663 221.935 129.423C218.453 141.623 204.776 141.623 198.95 135.467C197.948 141.965 187.555 149.541 180.565 147.87C170.965 148.121 163.218 141.623 163.871 129.051C144.823 132.33 133.949 111.283 141.377 99.3169C143.397 96.0642 149.74 88.8254 153.436 85.2282C148.435 80.6444 147.052 72.7572 146.66 68.2992C146.18 69.1971 145.814 70.1472 145.616 71.1505C139.597 68.8839 132.519 71.1708 128.567 77.2779Z" fill="#05B87C"/>
<path d="M403.891 234.885C407.931 232.974 410.572 227.403 407.446 221.333C403.812 214.28 395.867 214.871 388.428 214.055C389.916 212.228 390.652 206.346 388.528 204.08C383.803 199.027 374.955 202.812 370.555 205.901C371.014 200.279 363.132 196.527 356.899 200.844C353.652 191.333 338.148 196.125 341.703 208.219C334.394 208.658 332.672 217.147 336.864 220.591C330.98 224.183 329.592 231.111 335.454 236.904C331.884 239.249 328.898 244.693 330.913 249.917C334.227 258.526 342.574 258.845 350.582 258.433C350.64 264.607 357.687 273.645 366.937 273.518C378.369 273.378 387.113 266.314 384.962 258.035C392.86 260.505 402.069 258.741 406.72 250.827C410.186 244.934 408.437 238.329 403.891 234.885" fill="#05C887"/>
<path d="M259.716 23.4072L259.481 22.9844C254.736 22.2118 253.248 31.5402 257.257 33.3777C257.816 33.6387 258.667 33.3568 258.604 32.5895C258.474 30.9347 257.759 29.4625 258.035 27.7764C258.291 26.1843 259.361 24.9471 259.716 23.4072" fill="#ACD91A"/>
<path d="M159.707 93.4706C159.237 93.2096 158.658 93.6439 158.799 94.1863C159.211 95.7727 159.874 97.1983 160.036 98.8578C160.167 100.247 160.052 101.024 160.704 102.241C160.981 102.757 161.759 102.873 162.155 102.435C164.484 99.8554 162.401 94.9959 159.707 93.4706" fill="#ACD91A"/>
<path d="M290.081 25.0737C289.611 24.8075 289.037 25.2408 289.173 25.7785C289.59 27.3654 290.248 28.7957 290.405 30.4557C290.54 31.8443 290.42 32.6221 291.073 33.8332C291.354 34.3552 292.127 34.4648 292.524 34.0263C294.857 31.4476 292.769 26.5928 290.081 25.0737" fill="#ACD91A"/>
<path d="M152.7 106.835C148.905 106.878 148.279 111.847 151.056 113.841C151.541 114.19 152.126 113.715 152.152 113.199C152.256 111.315 152.94 109.572 153.405 107.781C153.53 107.316 153.18 106.831 152.7 106.835Z" fill="#ACD91A"/>
<path d="M336.532 82.7467C332.732 82.7937 332.105 87.757 334.888 89.7574C335.368 90.1061 335.952 89.6311 335.984 89.1153C336.083 87.2308 336.772 85.4873 337.232 83.6973C337.352 83.2322 337.007 82.7467 336.532 82.7467" fill="#ACD91A"/>
<path d="M188.169 125.074C187.783 124.822 186.796 124.337 186.452 124.933C185.549 126.482 185.241 129.657 186.207 131.217C186.499 131.682 187.016 131.906 187.538 131.772L188.091 131.635C188.717 131.474 189.297 130.899 189.443 130.247C189.793 128.66 189.761 126.093 188.169 125.074" fill="#ACD91A"/>
<path d="M149.211 141.213C147.024 142.284 145.416 144.582 146.418 147.039C146.664 147.635 147.452 148.053 147.963 147.457C149.289 145.907 149.618 143.883 150.077 141.899C150.203 141.361 149.675 140.989 149.211 141.213" fill="#ACD91A"/>
<path d="M357.973 213.688C355.786 214.763 354.173 217.055 355.175 219.514C355.416 220.11 356.214 220.527 356.721 219.932C358.046 218.38 358.381 216.355 358.835 214.368C358.96 213.835 358.428 213.458 357.973 213.688Z" fill="#ACD91A"/>
<path d="M190.188 99.7148C189.489 99.839 189.301 100.728 189.572 101.275C190.595 103.353 192.109 104.219 194.312 103.593C194.798 103.452 195.21 102.847 195.017 102.319C194.15 100.002 192.511 99.3295 190.188 99.7148Z" fill="#ACD91A"/>
<path d="M227.911 105.233C226.058 106.701 225.186 108.783 226.491 110.867C226.841 111.44 227.525 111.366 227.895 110.867C228.924 109.462 229.07 107.792 229.315 106.069C229.44 105.186 228.595 104.69 227.911 105.233Z" fill="#ACD91A"/>
<path d="M374.144 250.66C372.296 252.132 371.424 254.21 372.729 256.298C373.079 256.861 373.763 256.794 374.128 256.298C375.162 254.889 375.308 253.223 375.553 251.5C375.673 250.617 374.833 250.117 374.144 250.66Z" fill="#ACD91A"/>
<path d="M416.477 86.973C414.624 88.4414 413.752 90.5231 415.057 92.607C415.407 93.1802 416.091 93.1066 416.462 92.607C417.49 91.2023 417.636 89.5319 417.882 87.8092C418.007 86.926 417.161 86.4306 416.477 86.973Z" fill="#ACD91A"/>
<path d="M376.677 216.996C376.207 216.729 375.623 217.167 375.769 217.711C376.181 219.298 376.844 220.723 377.001 222.383C377.137 223.765 377.017 224.548 377.669 225.766C377.951 226.288 378.724 226.398 379.12 225.954C381.454 223.374 379.366 218.515 376.677 216.996" fill="#ACD91A"/>
<path d="M425.884 112.247C422.089 112.294 421.468 117.257 424.245 119.258C424.725 119.603 425.31 119.127 425.341 118.615C425.441 116.725 426.124 114.982 426.589 113.191C426.714 112.732 426.364 112.241 425.884 112.247Z" fill="#ACD91A"/>
<path d="M461.359 130.471C460.973 130.22 459.991 129.729 459.642 130.328C458.744 131.884 458.431 135.053 459.396 136.619C459.689 137.078 460.211 137.304 460.728 137.167L461.281 137.031C461.907 136.876 462.492 136.295 462.633 135.642C462.983 134.062 462.951 131.489 461.359 130.471" fill="#ACD91A"/>
<path d="M463.369 105.133C462.664 105.254 462.476 106.141 462.748 106.689C463.771 108.765 465.285 109.631 467.488 109.006C467.978 108.865 468.391 108.259 468.192 107.737C467.326 105.415 465.687 104.742 463.369 105.133" fill="#ACD91A"/>
<path d="M355.955 232.05L355.684 232.723C356.618 234.848 358.513 237.454 360.956 237.412C361.609 237.401 362.016 236.895 362.078 236.267C362.381 233.141 358.549 231.434 355.955 232.05Z" fill="#ACD91A"/>
<path d="M166.369 154.206C166.281 153.465 165.518 153.068 164.934 153.596C163.352 155.025 162.872 156.08 163.294 158.127C163.409 158.675 164.182 159.055 164.652 158.69C166.286 157.428 166.641 156.388 166.369 154.206" fill="#ACD91A"/>
<path d="M251.929 54.3474C249.945 52.181 246.74 51.7426 244.391 53.5435V54.5824C246.359 55.4646 248.588 56.1954 250.702 56.5034C251.897 56.6809 252.858 55.3601 251.929 54.3474Z" fill="#ACD91A"/>
<path d="M385.592 239.336C383.609 237.165 380.398 236.732 378.055 238.527V239.566C380.017 240.45 382.252 241.179 384.366 241.494C385.561 241.671 386.516 240.349 385.592 239.336" fill="#ACD91A"/>
<path d="M272.218 72.4664C268.679 73.3288 265.578 78.4023 268.553 81.4915C269.096 82.0605 270.052 81.9196 270.443 81.2431C271.764 78.9405 271.79 76.0694 273.069 73.6044C273.382 72.9989 272.871 72.3051 272.218 72.4664Z" fill="#ACD91A"/>
<path d="M385.278 102.16C381.739 103.027 378.643 108.106 381.614 111.191C382.157 111.76 383.112 111.624 383.503 110.941C384.824 108.639 384.85 105.774 386.129 103.304C386.447 102.699 385.931 102.003 385.278 102.16" fill="#ACD91A"/>
<path d="M332.23 59.2934C328.69 60.16 325.59 65.2392 328.565 68.3243C329.108 68.8881 330.069 68.7576 330.455 68.0737C331.781 65.7769 331.802 62.9058 333.081 60.4314C333.399 59.8311 332.882 59.1368 332.23 59.2934Z" fill="#ACD91A"/>
<path d="M374.783 84.3554C373.906 84.6837 373.692 85.8645 374.522 86.4006C376.61 87.7386 378.526 88.495 380.948 88.6787C381.747 88.7398 382.034 87.8221 381.773 87.2103C380.541 84.3293 377.685 83.2748 374.783 84.3554Z" fill="#ACD91A"/>
<path d="M266.538 105.6C266.397 104.941 265.484 104.696 265.04 105.198C263.458 106.998 262.67 109.41 264.565 111.221C265.103 111.733 265.828 111.576 266.236 111.003C267.41 109.331 266.961 107.531 266.538 105.6Z" fill="#ACD91A"/>
<path d="M364.128 49.7927C363.987 49.1402 363.074 48.8844 362.63 49.3907C361.048 51.1917 360.26 53.6035 362.155 55.4096C362.698 55.9264 363.423 55.775 363.831 55.1904C365 53.5251 364.551 51.719 364.128 49.7927" fill="#ACD91A"/>
<path d="M296.616 56.6464C296.464 55.9939 295.556 55.7433 295.117 56.2444C293.53 58.0454 292.737 60.4571 294.637 62.2685C295.175 62.7801 295.906 62.6235 296.308 62.0493C297.482 60.3788 297.038 58.5779 296.616 56.6464Z" fill="#ACD91A"/>
<path d="M134.472 298.667C137.332 280.397 136.654 262.141 132.316 242.789L99.6428 243.552C99.6428 243.552 90.1786 264.151 87.746 279.524C85.3134 294.897 88.8632 302.215 94.9864 309.499C101.11 316.785 122.893 307.066 123.708 306.528C123.917 306.388 128.187 303.255 134.472 298.667" fill="#FAB9AB"/>
<path d="M63.0969 463.542C53.6276 465.714 36.7769 463.081 33.5143 464.617C30.2517 466.152 25.684 477.898 19.1588 485.075C12.6336 492.253 2.8562 496.821 0.56977 509.219C-1.72188 521.616 2.84582 531.404 15.2437 524.879C27.6416 518.354 81.3518 482.084 81.3518 482.084C81.3518 482.084 70.259 461.893 63.0969 463.542Z" fill="#6D2A17"/>
<path d="M139.398 500.95C129.928 503.126 113.078 500.489 109.815 502.025C106.552 503.56 101.985 515.306 95.4595 522.483C88.9343 529.661 79.157 534.229 76.8706 546.627C74.5789 559.025 79.1465 568.812 91.5444 562.287C103.942 555.762 157.658 519.496 157.658 519.496C157.658 519.496 146.565 499.305 139.398 500.95" fill="#6D2A17"/>
<path d="M180.325 437.109C181.082 435.335 144.248 356.34 136.606 334.873C127.972 338.12 99.3445 332.541 99.026 338.444C97.4913 367.494 107.227 398.684 116.983 423.084C108.584 425.949 91.5612 433.8 81.1418 440.372C72.5807 445.769 53.6211 463.441 53.6211 463.441C53.6211 463.441 60.9136 465.602 63.5237 472.998C66.1338 480.39 67.9765 494.219 67.9765 494.219C67.9765 494.219 110.907 478.251 120.825 472.998C135.797 465.07 174.781 450.16 180.325 437.109" fill="#F7AE2D"/>
<path d="M243.964 426.344C222.572 382.25 189.601 338.391 189.601 338.391C189.601 338.391 158.87 337.669 134.737 342.65C139.247 360.921 142.656 391.449 157.445 416.833C168.694 436.159 182.22 445.789 193.386 456.036C180.643 461.393 159.747 473.523 146.937 480.51C138.047 485.348 120.836 499.433 120.836 499.433C120.836 499.433 132.127 507.367 134.737 514.763C137.347 522.154 138.245 534.883 138.245 534.883C138.245 534.883 183.415 518.574 193.715 514.11C213.29 505.627 242.769 486.544 253.538 475.126C264.338 463.668 248.803 436.316 243.964 426.344Z" fill="#F7AE2D"/>
<path d="M177.247 441.583C166.306 432.22 155.234 412.587 146.934 399.081C144.621 399.216 138.472 397.567 136.196 396.983C136.394 398.293 143.347 412.252 150.196 425.751C152.613 430.533 151.104 436.353 146.657 439.328C137.469 445.494 126.685 452.535 105.945 463.54C94.0637 469.841 65.4258 479.868 65.4258 479.868L67.9837 494.219C67.9837 494.219 120.697 476.006 143.045 464.193C160.537 454.937 174.298 445.598 177.247 441.583" fill="#EE9412"/>
<path d="M129.313 275.838C128.233 258.341 125.524 248.115 125.524 248.115L137.222 210.927C137.222 210.927 120.836 202.616 109.753 215.829C105.139 221.314 96.6821 237.821 89.3164 253.215C94.9907 263.076 110.427 276.461 129.313 275.838" fill="#FF483D"/>
<path d="M161.959 138.03C153.2 131.947 136.349 133.854 129.035 149.294C124.995 157.84 130.706 180.836 131.614 196.975C132.345 209.995 127.981 217.517 127.981 217.517C127.981 217.517 127.981 217.517 139.152 222.121C150.313 226.726 161.959 222.121 161.959 222.121L161.594 202.264C161.594 202.264 173.621 200.474 175.725 198.547C180.793 193.9 183.471 180.093 181.127 162.278C177.63 135.759 165.185 140.275 161.959 138.03" fill="#FAB9AB"/>
<path d="M153.115 361.876C135.518 363.328 112.8 359.393 101.101 344.911C101.404 340.396 101.545 335.494 101.43 330.15C100.72 297.273 99.4048 273.348 101.065 260.401C103.435 241.923 121.236 210.936 121.236 210.936L161.948 216.99C161.948 216.99 175.358 222.578 179.555 231.754C183.752 240.932 184.593 246.721 185.167 279.074C185.475 296.149 183.329 321.112 185.819 339.43C175.875 352.564 172.571 360.274 153.115 361.876" fill="#FE5F55"/>
<path d="M161.778 211.348C161.778 211.348 145.506 216.14 135.912 208.66C122.324 198.066 120.836 212.966 120.836 212.966C120.836 212.966 126.573 220.964 137.922 224.569C149.27 228.189 159.528 227.499 170.699 221.982C170.767 214.637 161.778 211.348 161.778 211.348" fill="#FF483D"/>
<path d="M172.785 169.283C174.117 164.836 177.155 154.506 177.917 150.339C178.799 145.505 179.06 138.323 172.456 131.457C165.853 124.584 142.947 122.375 134.663 127.167C126.383 131.959 108.76 140.719 114.909 169.283C119.879 192.366 124.713 194.962 131.687 200.38C137.784 205.115 148.517 206.289 148.517 206.289C148.517 206.289 154.494 201.966 155.569 193.229C155.914 190.468 155.569 182.119 155.569 182.119C155.569 182.119 149.467 170.04 154.196 165.739C159.229 161.155 164.386 168.443 165.561 171.392C169.69 181.711 173.782 186.563 172.785 169.283" fill="#5D2C17"/>
<path d="M158.75 123.411C169.101 123.695 187.455 120.717 194.633 144.151C201.811 167.579 164.57 195.46 145.762 203.019C126.792 210.635 103.933 195.827 108.5 167.367C112.901 139.914 139.357 122.885 158.75 123.411Z" fill="#F7AE2D"/>
<path d="M166.147 136.934C166.147 136.934 175.095 155.987 154.188 169.576C133.286 183.169 116.853 176.064 113.257 167.278C107.896 154.203 104.445 141.47 120.821 128.388C137.202 115.306 154.392 119.703 166.147 136.934" fill="#EE9412"/>
<path d="M195.399 349.347C193.531 341.041 189.046 333.77 188.504 327.353C187.078 310.707 187.052 269.191 187.052 269.191L178.371 271.513C178.371 271.513 177.009 292.879 173.903 307.01C170.797 321.135 158.315 343.792 144.273 346.928C126.232 350.964 99.0247 331.592 99.0247 331.592C99.0247 331.592 97.7824 340.617 98.936 352.854C103.493 354.587 144.273 388.167 195.399 349.347" fill="#F7AE2D"/>
<path d="M105.229 235.975C109.609 222.553 116.432 214.74 121.396 210.516C121.396 211.617 121.532 212.692 121.84 213.736C115.894 224.735 107.897 249.186 107.897 295.996C107.897 323.166 107.897 335.871 107.897 335.871L99.0276 331.591C99.0276 331.591 97.6755 259.098 105.229 235.975Z" fill="#F7AE2D"/>
<path d="M201.884 275.731C205.679 287.371 211.614 299.153 212.815 307.689C220.849 315.733 249.319 342.47 255.453 347.168C257.943 349.075 268.681 352.16 275.243 358.685C281.204 364.605 296.828 367.737 293.942 373.171C291.06 378.61 280.891 380.588 276.37 378.97C269.214 376.397 257.322 367.025 250.625 359.301C240.576 352.044 227.844 346.563 221.11 342.58C211.98 337.187 195.954 326.451 188.223 315.576C182.178 307.073 169.863 274.822 169.863 274.822L196.022 256.698L201.884 275.731Z" fill="#FAB9AB"/>
<path d="M170.321 285.123C184.478 290.219 198.406 289.419 206.528 278.357C200.64 251.636 197.257 228.464 176.831 226.902C158.033 225.463 155.851 240.387 157.934 257.383C158.524 262.181 163.451 273.337 170.321 285.123" fill="#FF483D"/>
<path d="M176.211 226.801C176.211 226.801 151.729 229.473 141.456 269.189C130.399 311.957 129.167 345.611 129.167 345.611L120.836 342.392C120.836 342.392 125.44 278.528 137.222 252.605C148.999 226.681 170.699 221.973 170.699 221.973L176.211 226.801Z" fill="#F7AE2D"/>
<path d="M189.608 335.879C189.608 335.879 166.624 352.861 140.956 352.861C115.288 352.861 99.0275 338.448 99.0275 338.448L98.9336 328.012C98.9336 328.012 125.797 341.919 139.687 340.908C173.206 338.448 187.969 324.04 187.969 324.04L189.608 335.879" fill="#EE9412"/>
<path d="M193.679 343.562C193.679 343.562 192.358 353.44 189.92 360.581C186.621 370.238 184.836 376.991 184.836 376.991L189.299 383.586C189.299 383.586 192.233 376.824 195.459 367.293C198.299 358.898 199.265 351.878 199.265 351.878L193.679 343.562" fill="#EE9412"/>
<path d="M294.287 366.528C291.207 363.731 287.699 361.559 284.097 359.626C287.517 358.123 290.706 356.119 287.015 355.242C283.633 354.432 270.06 353.729 268.197 352.856C259.526 348.79 240.128 328.729 240.128 328.729C240.128 328.729 233.394 331.945 227.861 339.916C224.661 344.514 222.734 351.055 222.734 351.055C222.734 351.055 246.543 360.023 253.888 367.409C261.233 374.797 280.151 389.758 292.121 383.577C304.09 377.407 300.922 372.562 294.287 366.528" fill="#FE5F55"/>
<path d="M440.688 467.799C440.688 480.415 422.516 490.641 400.096 490.641C377.675 490.641 359.504 480.415 359.504 467.799C359.504 455.181 377.675 444.948 400.096 444.948C422.516 444.948 440.688 455.181 440.688 467.799" fill="#F7AE2D"/>
<path d="M369.412 389.217L359.504 467.793H440.693L430.791 389.217H369.412" fill="#F7AE2D"/>
<path d="M328.164 404.811C328.164 404.811 357.601 449.616 361.15 454.769C364.695 459.919 375.511 441.946 369.409 432.958C363.306 423.973 337.842 398.217 337.842 398.217L328.164 404.811" fill="#F7AE2D"/>
<path d="M430.793 389.219C430.793 398.762 417.053 406.494 400.104 406.494C383.154 406.494 369.414 398.762 369.414 389.219C369.414 379.678 383.154 371.952 400.104 371.952C417.053 371.952 430.793 379.678 430.793 389.219Z" fill="#FAE44D"/>
<path d="M400.109 402.367C396.293 402.367 392.701 401.861 389.48 400.989C397.728 398.76 403.434 394.025 403.434 388.534C403.434 383.036 397.728 378.307 389.48 376.072C392.701 375.201 396.293 374.7 400.109 374.7C413.681 374.7 424.691 380.891 424.691 388.534C424.691 396.176 413.681 402.367 400.109 402.367Z" fill="#C5832E"/>
<path d="M310.09 395.87C310.09 395.87 320.092 403.469 328.162 404.797C333.064 403.653 335.726 401.424 337.84 398.203C337.772 392.68 334.687 379.062 334.687 379.062L310.09 395.87Z" fill="#FBCA3B"/>
<path d="M334.266 378.233C336.792 382.191 333.149 389.044 326.112 393.545C319.08 398.043 311.328 398.481 308.802 394.519C306.265 390.563 309.919 383.71 316.945 379.21C323.977 374.709 331.729 374.271 334.266 378.233" fill="#FAE44D"/>
<path d="M313.335 387.852C312.954 387.852 312.651 387.731 312.494 387.48C312.145 386.944 312.646 386.01 313.601 385.398C314.118 385.064 314.666 384.897 315.115 384.897C315.491 384.897 315.799 385.017 315.961 385.268C316.3 385.806 315.804 386.74 314.849 387.352C314.332 387.684 313.784 387.852 313.335 387.852" fill="#C5832E"/>
<path d="M322.484 382.025C322.103 382.025 321.8 381.905 321.643 381.654C321.294 381.116 321.79 380.182 322.745 379.573C323.267 379.238 323.815 379.071 324.264 379.071C324.64 379.071 324.948 379.191 325.11 379.436C325.449 379.978 324.953 380.912 323.998 381.524C323.476 381.852 322.928 382.025 322.484 382.025" fill="#C5832E"/>
<path d="M317.909 393.619C317.528 393.619 317.225 393.495 317.069 393.248C316.719 392.71 317.22 391.781 318.175 391.166C318.692 390.831 319.24 390.664 319.689 390.664C320.065 390.664 320.373 390.784 320.535 391.029C320.874 391.571 320.378 392.501 319.423 393.117C318.901 393.448 318.353 393.619 317.909 393.619" fill="#C5832E"/>
<path d="M327.055 387.775C326.68 387.775 326.372 387.655 326.215 387.41C325.87 386.866 326.366 385.938 327.322 385.322C327.844 384.992 328.392 384.825 328.835 384.825C329.216 384.825 329.525 384.945 329.681 385.192C330.026 385.728 329.53 386.664 328.574 387.274C328.052 387.608 327.504 387.775 327.055 387.775Z" fill="#C5832E"/>
<path d="M319.762 387.852C319.381 387.852 319.078 387.731 318.916 387.48C318.577 386.944 319.067 386.01 320.028 385.398C320.545 385.064 321.093 384.897 321.536 384.897C321.917 384.897 322.226 385.017 322.382 385.268C322.732 385.806 322.231 386.74 321.27 387.352C320.753 387.684 320.211 387.852 319.762 387.852Z" fill="#C5832E"/>
<path d="M328.903 382.025C328.527 382.025 328.219 381.905 328.063 381.654C327.718 381.116 328.214 380.182 329.169 379.573C329.686 379.238 330.234 379.071 330.683 379.071C331.064 379.071 331.372 379.191 331.529 379.436C331.873 379.978 331.377 380.912 330.417 381.524C329.9 381.852 329.352 382.025 328.903 382.025" fill="#C5832E"/>
<path d="M311.497 393.619C311.122 393.619 310.813 393.495 310.657 393.248C310.312 392.71 310.803 391.781 311.764 391.166C312.286 390.831 312.828 390.664 313.277 390.664C313.658 390.664 313.961 390.784 314.118 391.029C314.468 391.571 313.972 392.501 313.011 393.117C312.494 393.448 311.946 393.619 311.497 393.619Z" fill="#C5832E"/>
<path d="M337.649 397.765C338.651 399.335 337.205 402.049 334.423 403.825C331.64 405.61 328.571 405.783 327.569 404.221C326.566 402.651 328.007 399.937 330.795 398.156C333.577 396.376 336.646 396.199 337.649 397.765Z" fill="#FBCA3B"/>
<path d="M428.34 404.804C428.34 404.804 438.483 383.84 456.116 384.908C479.931 386.366 471.766 421.79 466.489 431.119C455.051 451.31 434.453 459.746 434.453 459.746L431.675 449.848C431.675 449.848 448.338 440.171 456.638 431.119C464.933 422.065 471.803 395.11 455.171 391.935C438.535 388.763 430.793 421.79 430.793 421.79L428.34 404.804" fill="#F7AE2D"/>
</svg>
