<svg width="500" height="666" viewBox="0 0 500 666" fill="none" xmlns="http://www.w3.org/2000/svg">
<path d="M333.536 186.387C339.726 181.504 346.499 168.173 352.846 160.385C371.912 137.008 387.763 111.88 377.431 101.362C377.431 101.362 368.365 83.4977 347.94 104.739C336.359 116.775 318.157 159.568 311.191 169.03C324.96 175.95 326.086 173.429 333.536 186.387" fill="#3D91E6"/>
<path d="M327.177 548.582C327.177 548.582 320.258 556.103 311.017 565.116C302.47 573.453 299.822 575.851 291.876 583.598C287.244 588.125 291.065 592.285 299.892 591.941C307.663 591.643 325.246 587.863 335.083 584.328C342.078 581.819 354.889 574.731 361.435 570.594C367.975 566.452 369.253 560.706 369.253 560.706V546.791L327.177 548.582" fill="#6D2A17"/>
<path d="M460.073 536.017C460.073 536.017 455.645 542.475 446.41 551.489C437.857 559.826 435.331 563.122 427.758 573.081C426.031 575.35 425.022 581.843 433.855 581.505C441.626 581.201 453.457 577.894 463.299 574.387C474.547 570.391 484.033 559.061 490.579 554.919C497.119 550.783 500.001 541.641 500.001 541.641L495.485 527.931L460.073 536.017" fill="#6D2A17"/>
<path d="M375.742 94.796C375.742 94.796 358.042 115.594 352.149 138.166C346.263 160.738 342.488 267.991 342.488 267.991C342.488 267.991 366.811 285.19 407.526 281.818C431.743 279.817 444.094 264.823 444.094 264.823C444.094 264.823 458.755 155.388 456.789 140.669C454.829 125.944 421.744 104.691 421.744 104.691C421.744 104.691 400.274 85.1465 375.742 94.796Z" fill="#3A89DA"/>
<path d="M498.102 520.178C498.102 520.178 485.396 468.926 461.838 415.923C464.125 370.027 448.56 334.019 450.059 310.572C450.643 301.501 450.199 293.228 449.126 285.702L449.161 285.696L446.086 250.295C446.086 250.295 417.161 258.043 403.188 237.332C399.326 231.609 393.603 217.817 393.755 211.388C394.618 175.83 397.915 159.459 397.915 159.459L349.34 138.171C349.34 138.171 343.273 167.633 340.969 220.618C338.67 273.573 338.011 293.018 338.011 293.035C332.883 322.019 326.92 356.696 323.356 380.727C315.153 436.057 320.118 548.759 320.118 548.759C320.118 548.759 321.156 560.783 341.768 560.707C357.584 560.642 374.398 546.792 374.398 546.792L370.886 418.543L389.21 327.584C389.21 327.584 406.841 401.508 412.435 428.029C418.386 456.248 444.721 546.792 444.721 546.792C444.721 546.792 461.914 553.105 480.233 543.946C498.558 534.786 498.102 520.178 498.102 520.178" fill="#83351B"/>
<path d="M385.429 162.371C384.163 164.139 384.116 166.286 385.335 167.161C386.555 168.042 388.573 167.313 389.845 165.545C391.123 163.771 391.163 161.625 389.944 160.749C388.725 159.874 386.7 160.598 385.429 162.371" fill="white"/>
<path d="M369.588 95.1926C369.588 95.1926 347.477 133.697 346.041 147.372C344.606 161.053 346.654 163.801 352.15 164.285C357.657 164.763 358.643 156.467 360.271 145.581C361.817 135.296 380.013 97.5669 380.013 97.5669L369.588 95.1926" fill="#6D2A17"/>
<path d="M384.317 130.438C388.961 128.985 401.13 122.836 404.503 119.58C409.642 114.61 414.234 109.108 417.156 102.627C416.62 97.7144 415.961 92.8138 415.692 87.849C415.348 81.3966 415.844 74.9266 416.41 68.4858C406.165 69.5067 382.823 92.1196 382.823 92.1196L377.199 118.6C377.199 118.6 377.514 122.602 384.317 130.438" fill="#F89D8E"/>
<path d="M405.839 26.6065C394.112 17.6688 366.319 14.8043 356.174 43.5252C345.538 73.6347 372.783 111.252 387.31 104.858C395.442 101.282 412.542 88.5697 417.355 72.7128C422.775 54.8664 414.957 33.549 405.839 26.6065Z" fill="#FABAAC"/>
<path d="M353.756 53.0853C358.592 58.0268 365.651 63.4992 380.207 61.1014C392.12 59.1412 400.661 53.5813 400.661 53.5813L403.1 69.5314C403.1 69.5314 405.48 69.1058 407.277 67.9915C407.522 61.6732 409.78 59.7128 413.251 61.5914C417.177 63.7208 417.341 72.7168 417.341 72.7168C417.341 72.7168 429.195 61.2706 425.193 43.2726C422.702 32.0596 407.557 9.90186 386.438 11.8679C365.324 13.8282 353.044 27.789 350.424 39.8713C349.117 45.9212 351.568 50.8626 353.756 53.0853" fill="#83351B"/>
<path d="M390.899 170.487C395.712 161.549 404.247 145.225 413.325 134.695C426.393 119.526 436.037 115.122 436.037 115.122C436.037 115.122 430.769 109.34 427.228 108.08C412.24 114.433 405 125.652 380.526 157.243C374.284 165.294 375.305 169.962 377.212 172.96C379.657 176.817 387.054 177.616 390.899 170.487Z" fill="#6D2A17"/>
<path d="M354.958 153.945C354.958 156.197 353.698 158.023 352.146 158.023C350.6 158.023 349.34 156.197 349.34 153.945C349.34 151.694 350.6 149.867 352.146 149.867C353.698 149.867 354.958 151.694 354.958 153.945Z" fill="white"/>
<path d="M381.528 166.34C380.215 168.166 380.174 170.383 381.434 171.287C382.695 172.191 384.777 171.439 386.09 169.613C387.403 167.792 387.444 165.57 386.183 164.665C384.929 163.767 382.84 164.514 381.528 166.34Z" fill="white"/>
<path d="M345.661 167.982C345.661 167.982 343.339 181.19 342.679 192.806C342.195 201.382 342.288 216.3 342.288 216.3C342.288 216.3 351.407 222.35 360.607 225.255C369.813 228.16 381.575 231.305 381.575 231.305C381.575 231.305 381.575 216.807 381.575 207.578C381.575 197.17 382.829 183.705 382.829 183.705C382.829 183.705 374.271 182.264 359.954 176.407C351.506 172.941 345.661 167.982 345.661 167.982" fill="#6D2A17"/>
<path d="M411.581 176.443C411.581 176.443 403.868 195.701 397.311 204.995C393.04 211.039 362.767 246.743 352.844 254.607C358.777 258.248 369.062 258.586 372.72 264.514C386.448 255.873 408.127 231.569 412.059 228.78C422.053 221.709 440.967 194.161 440.967 194.161C440.967 194.161 432.257 172.062 411.581 176.443" fill="#FABAAC"/>
<path d="M390.828 213.116C404.316 226.884 406.755 230.536 419.129 227.969C428.049 221.289 447.249 191.116 448.34 188.473C456.612 168.339 470.107 130.407 447.301 119.958C432.051 112.969 423.545 134.03 417.723 151.152C405.886 185.929 390.554 212.847 390.828 213.116" fill="#3D91E6"/>
<path d="M365.957 277.354C365.957 277.354 364.44 313.355 373.908 321.937C383.377 330.525 389.45 328.413 389.45 328.413C389.45 328.413 380.174 324.428 377.677 305.491C375.268 287.248 376.061 277.354 376.061 277.354H365.957Z" fill="#6D2A17"/>
<path d="M339.035 261.858V270.737C339.035 270.737 378.077 284.967 405.887 284.973C440.454 284.978 448.318 279.932 448.318 279.932L448.079 273.17C448.079 273.17 431.528 277.353 399.732 275.784C373.666 274.495 339.035 261.858 339.035 261.858" fill="#6D2A17"/>
<path d="M52.3808 636.135C37.679 627.646 28.0469 621.456 28.0469 613.084C28.0469 605.809 35.1177 599.019 54.1483 588.033L234.572 483.866L238.166 490.097L57.7422 594.264C48.0752 599.835 35.2344 607.863 35.2344 613.084C35.2344 617.559 45.0473 623.597 55.9803 629.904L52.3808 636.135" fill="#3A89DA"/>
<path d="M112.638 630.589C117.201 623.6 120.859 615.561 123.134 607.317L137.171 576.199L115.474 564.064L115.456 564.105C109.896 560.598 102.546 560.715 94.4538 565.382C77.1617 575.37 63.1367 602.16 63.1367 625.216C63.1367 638.769 68.0023 647.969 75.499 651.265L97.6858 663.738L112.638 630.589Z" fill="#83351B"/>
<path d="M149.306 602.167C149.306 625.223 135.281 652.013 117.989 661.995C100.697 671.982 86.6719 661.382 86.6719 638.326C86.6719 615.264 100.697 588.474 117.989 578.486C135.281 568.504 149.306 579.105 149.306 602.167Z" fill="#A8411F"/>
<path d="M142.482 606.835C142.482 624.88 131.514 645.842 117.98 653.654C104.445 661.465 93.4766 653.175 93.4766 635.131C93.4766 617.086 104.445 596.124 117.98 588.312C131.514 580.501 142.482 588.797 142.482 606.835Z" fill="white"/>
<path d="M136.468 610.31C136.468 623.921 128.196 639.737 117.98 645.635C107.771 651.527 99.4922 645.267 99.4922 631.657C99.4922 618.04 107.771 602.224 117.98 596.331C128.196 590.433 136.468 596.693 136.468 610.31Z" fill="#83351B"/>
<path d="M125.029 616.919C125.029 622.106 121.878 628.132 117.987 630.378C114.102 632.618 110.945 630.238 110.945 625.052C110.945 619.865 114.102 613.845 117.987 611.598C121.878 609.352 125.029 611.733 125.029 616.919Z" fill="white"/>
<path d="M274.271 504.525C219.42 539.827 150.811 583.967 120.737 603.225C114.605 607.152 109.227 610.693 104.431 613.849C79.1346 630.488 70.4418 636.748 55.0691 629.613C49.3401 626.952 47.6482 633.177 48.0741 633.615C55.7225 638.603 60.8507 639.373 66.883 639.373C77.9385 639.373 88.5041 632.932 108.386 619.852C113.153 616.714 118.508 613.19 124.617 609.281C154.703 590.011 223.364 545.836 278.227 510.528C276.92 508.521 275.59 506.526 274.271 504.525Z" fill="#3A89DA"/>
<path d="M357.935 284.717C357.194 282.086 355.094 282.086 355.094 282.086L350.508 282.839C331.244 293.393 316.029 301.735 299.023 353.244C288.737 384.386 263.557 469.05 263.301 469.901L270.191 471.949C270.448 471.097 295.598 386.539 305.854 355.496C321.968 306.683 335.392 299.32 353.968 289.146L355.123 288.51L355.082 288.428C355.7 288.218 358.664 287.267 357.935 284.717" fill="#3A89DA"/>
<path d="M294.821 251.915C294.821 250.188 293.771 248.175 292.476 247.428C291.846 247.067 291.286 247.078 290.86 247.37L290.849 247.341L289.215 248.239C269.957 258.805 254.742 267.148 237.735 318.65C227.45 349.792 202.265 434.45 202.008 435.302L208.904 437.355C209.154 436.504 234.311 351.951 244.561 320.902C260.686 272.089 274.099 264.732 292.674 254.546L293.929 253.858L293.906 253.811C294.454 253.548 294.821 252.912 294.821 251.915" fill="#3A89DA"/>
<path d="M242.666 599.754C236.394 599.754 229.737 598.406 222.544 596.942L217.492 595.933C195.13 591.598 170.89 585 170.645 584.93L172.541 577.993C172.78 578.057 196.769 584.591 218.869 588.873L223.979 589.894C236.312 592.409 246.055 594.381 254.24 589.859C262.787 585.151 261.848 573.548 259.584 557.679C257.023 539.663 252.49 517.243 252.443 517.016L259.497 515.592C259.544 515.82 264.106 538.444 266.708 556.664C268.843 571.675 271.27 588.687 257.712 596.16C252.916 598.803 247.928 599.754 242.666 599.754" fill="#3A89DA"/>
<path d="M303.547 455.142L126.992 554.676L157.37 586.886C162.066 591.874 169.586 592.953 175.508 589.494L262.861 538.411C271.309 533.47 277.767 525.734 281.127 516.539L303.547 455.142" fill="#929292"/>
<path d="M189.694 389.441L13.1445 488.975L43.5164 521.185C48.2186 526.173 55.7388 527.252 61.6545 523.793L149.007 472.704C157.455 467.768 163.919 460.032 167.28 450.838L189.694 389.441" fill="#ADADAB"/>
<path d="M45.991 523.322L159.305 588.594L129.26 557.061L18.7344 496.089L45.991 523.322" fill="#ADADAB"/>
<path d="M310.185 458.635H302.426V453.787H310.185V458.635Z" fill="#C1BFBD"/>
<path d="M4.66723 480.966H0V485.633H4.66723V480.966Z" fill="#C1BFBD"/>
<path d="M143.964 557.369L306.925 463.283C311.453 460.67 311.453 454.147 306.925 451.534L191.663 384.985C183.833 380.463 174.184 380.463 166.354 384.985L3.38666 479.07C-1.12889 481.684 -1.12889 488.206 3.38666 490.82L118.661 557.369C126.491 561.89 136.134 561.89 143.964 557.369" fill="#C1BFBD"/>
<path d="M143.964 553.779L306.925 459.688C311.453 457.08 311.453 450.552 306.925 447.944L191.663 381.395C183.833 376.873 174.184 376.873 166.354 381.395L3.38666 475.48C-1.12889 478.088 -1.12889 484.616 3.38666 487.224L118.661 553.779C126.491 558.3 136.134 558.3 143.964 553.779" fill="#DFDFDD"/>
<path d="M214.341 503.253L175.732 480.961L91.9375 529.384L119.719 545.422C127.338 549.4 135.308 549.365 141.358 545.422L214.341 503.253" fill="#ADADAB"/>
<path d="M169.062 388.711L12.3478 479.261C10.7434 480.194 10.7434 482.516 12.3478 483.444L91.9298 529.387L175.724 480.964L179.627 385.858C175.975 385.881 172.329 386.82 169.062 388.711Z" fill="#C1BFBD"/>
<path d="M214.348 503.254L297.611 455.141L214.348 503.254Z" fill="#B5B5B4"/>
<path d="M297.611 450.561L269.194 434.15L190.475 388.708C187.12 386.772 183.381 385.832 179.641 385.856L175.738 480.962L214.348 503.254L297.611 455.141C299.373 454.126 299.373 451.576 297.611 450.561" fill="#B5B5B4"/>
<path d="M161.203 507.845C154.628 499.543 160.217 487.963 171.862 488.149C172.936 483.581 175.398 479.982 181.033 479.188C187.778 478.232 191.535 482.776 195.455 487.093L195.986 486.586C197.544 485.419 199.545 484.888 201.522 484.941C204.282 477.07 215.244 474.305 221.702 480.874C225.629 477.957 229.03 474.031 234.117 478.622C238.195 482.304 237.641 486.953 235.436 491.014C248.492 483.447 258.649 477.543 262.214 475.431C261.49 469.737 255.318 467.304 248.516 466.289C250.359 461.569 251.112 452.019 247.308 447.807C231.953 430.836 213.36 438.922 211.207 439.558C210.933 430.194 202.66 427.942 199.381 428.508C198.197 420.965 192.941 413.596 185.508 414.261C184.75 393.825 164.523 400.668 159.401 406.496C154.179 412.447 152.347 416.887 144.711 420.422C142.161 421.601 139.635 422.604 137.686 424.693C135.242 427.306 134.209 430.235 134.425 433.21C123.218 433.298 111.404 436.839 109.251 448.122C105.593 448.933 102.495 451.675 102.303 455.963L102.408 457.363C99.0827 457.497 95.9031 458.279 92.4844 460.315C86.5103 463.88 86.0844 470.583 81.7905 474.346C76.3999 479.072 66.5404 478.809 59.3354 481.58C50.6718 484.912 40.5614 489.351 34.9023 496.095C40.3805 499.619 95.3955 531.385 119.723 545.428C127.004 549.483 132.377 549.967 140.067 546.111C143.048 544.395 149.174 540.871 157.131 536.28C145.796 529.746 149.372 513.061 161.203 507.845" fill="#C65632"/>
<path d="M234.109 478.618C229.022 474.026 225.62 477.953 221.694 480.87C215.236 474.3 204.274 477.066 201.514 484.936C199.536 484.883 197.535 485.414 195.978 486.581L195.447 487.089C191.526 482.772 187.769 478.227 181.025 479.184C175.389 479.977 172.927 483.577 171.854 488.145C160.209 487.958 154.62 499.538 161.195 507.84C149.364 513.056 145.787 529.741 157.123 536.275C177.968 524.251 211.543 504.853 235.427 491.009C237.633 486.949 238.187 482.299 234.109 478.618Z" fill="#A8411F"/>
<path d="M171.653 447.158C163.9 454.679 174.862 460.863 181.688 461.86C189.149 462.957 203.314 462.858 204.213 452.532C205.082 442.491 180.112 438.962 171.653 447.158Z" fill="#A8411F"/>
<path d="M147.385 444.558C140.617 442.61 133.109 442.184 137.636 452.108C139.964 457.23 149.619 466.634 155.722 460.83C162.057 454.809 153.394 446.297 147.385 444.558Z" fill="#A8411F"/>
<path d="M136.174 495.044C136.156 486.643 124.179 487.045 119.226 489.274C114.068 491.596 104.366 499.192 111.595 504.909C116.355 508.684 136.191 503.258 136.174 495.044" fill="#A8411F"/>
<path d="M109.355 485.74C107.406 480.629 87.6115 476.51 83.4752 483.943C79.8756 490.407 92.2613 494.211 96.8469 494.485C101.578 494.771 112.056 492.817 109.355 485.74" fill="#A8411F"/>
<path d="M113.311 609.119C113.311 609.119 111.281 632.361 117.792 627.07C124.308 621.779 123.107 603.413 123.107 603.413L113.311 609.119Z" fill="#3A89DA"/>
<path d="M351.508 288.314L290.426 253.048L294.02 246.817L355.102 282.084L351.508 288.314Z" fill="#3A89DA"/>
<path d="M358.192 251.091C356.267 252.491 354.715 253.553 353.793 254.072C348.309 257.158 340.48 260.921 333.922 260.297C327.365 259.679 324.967 262.637 323.363 263.844C324.862 264.661 327.896 266.038 327.896 266.038C327.896 266.038 317.459 270.343 317.797 278.914C317.966 283.231 318.871 283.307 322.056 283.406C323.036 285.127 323.66 287.618 327.674 286.714C328.917 287.49 333.654 291.241 336.204 290.687C347.662 288.172 355.648 277.554 359.814 273.64C362.293 271.323 367.095 268.051 372.724 264.509C369.195 258.769 364.376 254.043 358.192 251.091" fill="#FABAAC"/>
<path d="M333.124 187.119C331.876 182.836 328.113 179.803 324.723 177.113C321.013 174.167 317.174 171.548 312.903 169.599C309.934 175.655 307.139 182.335 305.191 189.126C299.654 208.489 296.481 225.775 294.818 238.791C292.444 244.269 288.179 252.705 289.054 260.534C289.923 268.363 295.425 271.035 299.007 273.007C302.583 274.973 303.651 271.327 303.651 271.327C303.651 271.327 307.665 273.264 309.747 273.585C311.824 273.912 316.089 267.867 316.089 267.867C316.089 267.867 311.743 265.207 309.152 263.119C308.907 258.655 313.259 258.165 313.259 258.165L320.931 262.273C320.931 262.273 315.395 253.504 314.129 250.89C312.857 248.277 312.553 248.061 312.326 245.972C311.789 241.171 320.377 212.193 324.076 202.836C326.987 198.18 330.143 192.603 333.124 187.119" fill="#FABAAC"/>
<path d="M430.494 40.4582C430.494 40.4582 428.114 21.8011 421.714 12.875C414.736 3.12635 383.238 -3.76362 371.67 2.25127C364.605 5.92088 354.704 27.0459 354.704 27.0459L331.566 36.9464C331.566 36.9464 341.105 54.5534 368.058 65.7548C399.399 78.7763 435.867 71.3319 450.114 61.3382C450.114 61.3382 435.541 46.4848 430.494 40.4582" fill="#F7AE2D"/>
<path d="M354.691 27.0483C354.691 27.0483 361.92 36.9019 387.38 42.4034C412.839 47.9049 430.481 40.4606 430.481 40.4606L429.437 34.3175C429.437 34.3175 409.613 37.328 391.702 34.7493C370.029 31.6281 357.958 20.6075 357.958 20.6075L354.691 27.0483" fill="#EE9412"/>
<path d="M382.703 105.485C381.979 105.392 381.25 105.299 380.509 105.054C377.668 104.12 374.611 102.51 372.289 100.386C372.289 100.386 365.621 110.205 362.809 118.6C370.9 121.179 384.33 130.438 384.33 130.438C384.33 130.438 381.956 116.868 382.703 105.485" fill="#3D91E6"/>
<path d="M416.24 94.3407C416.24 94.3407 403.236 104.626 397.186 111.779C391.346 118.686 384.328 130.442 384.328 130.442C384.328 130.442 393.593 130.442 402.507 135.436C410.395 127.915 424.7 109.41 424.052 106.236C422.675 99.4629 416.24 94.3407 416.24 94.3407" fill="#3D91E6"/>
<path d="M397.684 203.133C397.684 203.133 391.267 201.896 389.709 205.134C388.151 208.378 384.487 211.651 383.122 213.944C381.751 216.236 383.816 221.744 383.816 221.744C383.816 221.744 396.156 221.995 399.79 228.348C403.419 234.713 401.155 240.512 401.155 240.512C401.155 240.512 406.12 244.777 410.974 241.527C413.173 240.057 414.107 237.607 417.17 235.203C420.232 232.799 427.35 229.526 425.291 225.087C423.243 220.647 422.339 215.659 415.373 210.898C404.008 203.127 397.684 203.133 397.684 203.133" fill="#56A7F9"/>
<path d="M307.341 182.422C307.341 182.422 303.123 178.922 304.284 176.36C305.445 173.805 307.738 171.88 307.388 168.484C307.044 165.101 312.195 158.345 317.627 159.996C328.058 163.164 332.025 163.38 339.143 172.469C344.055 178.741 341.494 185.456 339.003 187.183C336.523 188.909 334.394 195.263 333.367 196.733C332.334 198.203 327.212 197.637 327.212 197.637C327.212 197.637 328.285 190.555 320.351 185.864C312.417 181.179 307.341 182.422 307.341 182.422" fill="#56A7F9"/>
</svg>
