<svg width="500" height="545" viewBox="0 0 500 545" fill="none" xmlns="http://www.w3.org/2000/svg">
<path d="M426.668 318.662C426.668 318.662 435.094 314.278 436.52 306.02C438.102 296.839 441.239 292.053 445.874 291.846C456.224 291.371 455.81 296.353 462.805 293.518C468.826 291.069 479.092 286.97 488.245 289.783C499.008 293.098 507.216 294.446 490.33 306.02C473.439 317.6 434.759 343.75 434.759 343.75L426.668 318.662" fill="#83351B"/>
<path d="M345.043 292.14C345.043 292.14 353.464 287.757 354.889 279.498C356.477 270.312 359.608 265.537 364.244 265.325C374.599 264.849 374.179 269.831 381.174 266.996C387.201 264.553 397.467 260.449 406.614 263.267C417.383 266.583 425.591 267.924 408.7 279.498C391.814 291.072 353.134 317.229 353.134 317.229L345.043 292.14" fill="#83351B"/>
<path d="M260.488 359.582C270.698 362.993 282.389 360.885 310.642 344.228C332.208 331.508 372.672 305.274 372.672 305.274L363.603 275.204C363.603 275.204 303.429 286.397 288.97 294.03C274.517 301.656 260.488 359.582 260.488 359.582Z" fill="#FF483D"/>
<path d="M355.124 358.952C350.969 368.949 361.9 401.916 362.376 401.653C362.845 401.39 401.157 382.458 416.114 370.504C437.226 353.635 451.294 337.347 451.294 337.347C451.294 337.347 450.399 323.397 443.796 316.704C431.126 303.889 424.087 309.05 424.087 309.05C424.087 309.05 363.293 339.299 355.124 358.952" fill="#FF483D"/>
<path d="M235.634 166.843C227.924 171.78 202.036 186.06 185.698 195.633C170.339 204.623 164.189 218.093 162.428 224.025C159.151 235.057 165.62 238.579 171.916 234.867C172.984 234.224 176.674 228.358 180.845 219.032C181.416 217.752 184.295 219.032 183.367 222.024C181.332 228.56 182.847 233.066 184.653 230.299C186.643 227.24 187.834 216.259 195.494 211.104C212.33 199.776 241.818 192.2 248.36 186.295C259.09 176.622 284.01 140.804 284.01 140.804L263.837 116.175L235.634 166.843" fill="#FABAAC"/>
<path d="M308.131 83.852C308.131 83.852 300.018 78.3501 285.705 83.852C271.402 89.3594 256.652 121.375 256.652 122.454C256.652 123.533 271.039 139.72 281.467 140.794C291.9 141.878 308.131 83.852 308.131 83.852Z" fill="#F7AE2D"/>
<path d="M377.652 119.425C375.281 109.975 346.346 90.1432 346.346 90.1432C346.346 90.1432 330.187 103.026 324.495 107.487C319.044 111.765 309.947 122.718 309.175 123.652L309.041 123.629C309.158 121.829 310.249 107.381 315.901 91.9716C317.68 87.1183 314.979 72.9332 314.979 72.9332C314.979 72.9332 312.709 72.3684 309.432 71.7869C304.523 77.2329 294.856 91.692 289.617 97.6914C284.551 103.473 268.689 123.775 274.218 142.439C275.862 147.991 274.101 150.551 277.036 157.423C280.335 165.134 280.128 179.827 279.715 187.806C279.228 196.959 270.707 221.114 270.707 221.114C270.707 221.114 291.73 245.464 314.274 244.468C340.593 243.3 359.251 224.72 359.251 224.72C359.251 224.72 352.949 184.91 353.794 168.477C353.794 168.477 385.485 150.641 377.652 119.425Z" fill="#FAE44D"/>
<path d="M278.391 112.808L302.841 76.8336L310.641 79.1987C310.641 79.1987 302.405 90.8006 295.629 102.358C292.688 107.373 286.565 118.662 286.565 118.662L278.391 112.808Z" fill="#FE5F55"/>
<path d="M319.98 131.676C319.98 131.676 335.2 106.308 338.544 99.1903C341.602 92.6877 344.051 84.6362 344.051 84.6362H348.574C348.809 84.5244 352.125 87.1467 349.732 95.159C346.567 105.743 329.268 134.404 329.268 134.404L319.98 131.676Z" fill="#FE5F55"/>
<path d="M281.334 37.871C281.334 37.871 279.976 46.8283 282.441 59.979C283.677 66.5488 287.899 74.4492 287.899 74.4492L316.649 61.0973L281.334 37.871" fill="#6D2A17"/>
<path d="M313.278 75.1092C313.278 75.1092 313.491 91.3855 310.611 100.058C308.207 103.821 305.769 115.663 307.206 125.984C312.546 122.965 320.922 113.303 326.323 108.976C338.545 99.1798 343.455 89.6019 343.455 89.6019L345.523 43.6358L313.278 75.1092" fill="#F68C83"/>
<path d="M329.872 17.0541C318.846 9.47234 293.529 8.09679 285.601 34.5716C277.281 62.3323 303.638 95.2203 316.52 88.7959C323.733 85.1895 338.673 72.9166 342.335 58.3345C346.462 41.9241 338.444 22.9473 329.872 17.0541" fill="#FABAAC"/>
<path d="M352.19 23.3476C347.393 15.4415 336.501 4.82919 328.746 2.0615C313.185 -3.47388 302.959 2.43056 289.232 16.3529C280.985 24.7174 277.468 34.2953 278.189 49.1625C278.189 49.1625 301.153 63.9235 314.639 66.0426C320.89 67.0211 329.277 62.9171 334.175 60.2165C335.098 67.0099 336.07 74.7203 336.244 78.3938C336.607 85.7575 334.745 96.5879 334.745 96.5879C334.745 96.5879 354.572 91.8185 360.024 82.8892C365.481 73.9655 360.89 37.6669 352.19 23.3476Z" fill="#6D2A17"/>
<path d="M375.289 240.389C369.67 211.935 360.484 194.96 360.484 194.96C360.484 194.96 350.9 193.517 345.521 192.673C335.944 191.158 333.573 185.516 331.442 165.639C330.358 155.496 329.295 142.603 330.089 133.036C308.613 125.298 292.443 120.495 279.516 111.107C269.687 126.187 267.377 136.123 269.569 147.831C271.672 159.108 273.645 166.405 275.407 184.761C276.357 194.602 257.129 266.115 251.448 291.225C245.767 316.33 238.784 336.721 250.978 353.149C256.167 360.138 263.464 361.81 270.71 360.473C280.495 358.656 290.201 351.359 294.523 344.236C298.761 337.258 306.623 311.6 313.729 289.391C314.445 320.523 317.095 358.102 319.98 372.88C325.102 399.126 335.737 404.275 350.598 404.275C375.289 404.275 377.33 377.37 378.896 367.306C380.461 357.241 379.735 262.888 375.289 240.389" fill="#FE5F55"/>
<path d="M280.255 132.244C278.432 141.481 279.349 170.544 295.815 174.917C310.75 178.886 314.613 161.285 318.052 147.67C298.717 143.292 280.255 132.244 280.255 132.244Z" fill="#FF483D"/>
<path d="M335.288 223.711L331.676 229.755C331.676 229.755 340.437 242.671 350.602 250.521C360.762 258.371 364.513 261.189 364.513 261.189L367.812 250.521C367.812 250.521 364.044 244.768 353.957 236.549C345.134 229.364 335.288 223.711 335.288 223.711Z" fill="#FF483D"/>
<path d="M355.306 135.359L327.114 202.583C320.354 207.766 301.752 230.036 288.747 247.721C285.789 251.736 283.066 252.088 274.763 254.716C262.96 258.462 261.383 262.404 258.017 263.561C254.651 264.724 254.981 266.793 258.694 267.33C264.81 268.224 269.345 262.426 269.938 266.077C270.379 268.8 268.92 269.757 265.14 276.673C261.361 283.595 259.415 290.081 266.175 292.563C272.935 295.046 280.701 292.804 286.454 283.942C290.715 277.372 298.068 266.005 302.345 261.135C308.663 253.928 334.103 234.201 348.02 215.722C356.709 204.176 377.475 158.199 377.475 158.199L355.306 135.359Z" fill="#FABAAC"/>
<path d="M374.225 109.436C381.046 115.363 390.378 135.324 383.49 153.876C376.59 172.428 372.676 181.676 372.676 181.676C372.676 181.676 362.377 182.162 353.9 178.265C345.262 174.284 337.77 167.133 337.77 167.133C337.77 167.133 353.09 91.0858 374.225 109.436Z" fill="#F7AE2D"/>
<path d="M14.4498 396.357C19.4149 406.969 32.3531 411.33 42.2665 416.172C60.578 425.124 79.0125 433.807 97.5644 442.233C137.671 460.444 178.359 477.369 219.555 492.963C239.058 500.338 258.772 508.227 279.757 509.927C300.316 511.593 321.099 508.356 340.467 501.367C371.633 490.123 397.861 469.508 419.528 444.884C414.982 425.761 393.187 412.063 378.896 401.652C335.317 369.915 321.278 365.191 257.822 343.743C244.079 339.102 158.414 308.026 118.174 311.196C89.5129 313.46 37.3405 338.537 12.3083 369.373C11.9225 380.522 11.3243 389.692 14.4498 396.357Z" fill="#A8411F"/>
<path d="M15.868 421.62C26.7375 431.416 183.724 509.135 222.276 523.65C263.372 539.127 293.174 553.631 337.764 537.421C385.9 519.921 408.623 490.902 418.368 463.499C420.767 456.761 420.873 450.594 419.52 444.88C397.854 469.504 371.625 490.119 340.459 501.363C321.091 508.352 300.308 511.59 279.749 509.923C258.765 508.224 239.05 500.334 219.548 492.959C178.351 477.365 137.663 460.44 97.5569 442.23C79.005 433.804 60.5704 425.12 42.2589 416.169C32.3455 411.327 19.4073 406.965 14.4422 396.353C11.3167 389.688 11.9149 380.519 12.3007 369.37C7.60963 375.151 3.76288 381.1 1.32508 387.172C-3.65117 399.535 6.31252 413.015 15.868 421.62Z" fill="#90311D"/>
<path d="M260.358 354.509C239.854 345.138 216.365 342.639 194.207 340.184C182.477 338.881 170.735 337.584 158.982 336.472C152.088 335.817 145.54 335.258 139.424 337.411C129.639 338.909 119.289 343.88 118.132 353.754C117.237 361.392 124.31 367 129.074 371.887C135.32 378.289 142.018 384.484 149.684 389.181C153.542 391.54 158.21 392.731 161.957 395.079C169.119 399.558 169.628 404.674 175.459 408.761C179.804 411.809 182.225 413.039 186.178 416.925C198.529 429.069 218.345 419.021 232.496 413.62C239.804 410.83 244.501 406.972 250.288 401.945C257.758 395.46 269.527 392.714 274.945 384.009C282.807 371.423 271.551 359.625 260.358 354.509" fill="#90311D"/>
<path d="M176.006 434.047C159.641 419.325 144.136 403.451 127.312 389.249C113.859 377.882 99.2547 366.745 80.9936 366.236C59.5286 365.637 39.0141 372.587 21.122 384.089L20.4735 384.883C15.1841 388.422 16.1962 392.358 22.3298 394.55C36.0453 399.454 49.4419 389.892 61.793 403.11C67.731 409.462 71.0467 417.832 77.1245 424.1C89.9732 437.357 109.761 444.872 126.557 451.654C135.14 455.115 144.874 460.052 154.228 460.745C161.838 461.31 174.815 459.974 181.581 456.731C192.981 451.274 181.855 439.308 176.006 434.047" fill="#90311D"/>
<path d="M382.791 466.744C370.227 442.948 336.316 441.153 313.095 435.623C286.922 429.389 222.321 447.465 215.007 449.473C212.569 450.138 197.747 460.185 191.904 453.325C184.44 444.558 175.085 438.905 177.177 443.216C182.069 453.325 191.619 468.953 196.332 470.954C208.913 476.316 210.193 475.366 220.559 472.352C227.789 470.255 234.94 472.794 241.152 476.484C250.277 481.885 259.676 482.444 269.701 485.497C281.829 489.188 293.09 496.272 306.106 496.205C319.95 496.138 334.364 488.902 347.292 484.502C358.687 480.622 372.894 478.262 382.304 470.507C383.383 469.618 383.389 467.879 382.791 466.744" fill="#90311D"/>
<path d="M106.277 410.425C106.277 410.425 108.441 428.334 115.408 439.315C122.369 450.297 135.827 448.423 139.903 450.442C143.991 452.46 151.83 456.782 156.196 455.34C160.558 453.903 168.961 447.171 168.961 447.171L106.277 410.425" fill="#099F6C"/>
<path d="M244.872 435.88C244.872 435.88 233.818 430.115 227.578 430.356C221.332 430.596 227.578 437.803 227.578 437.803C227.578 437.803 220.13 435.147 215.087 435.511C210.044 435.88 217.966 442.729 217.966 442.729C217.966 442.729 206.918 442.12 203.317 445.967C199.716 449.808 206.918 454.678 210.524 453.325C214.131 451.972 220.852 450.434 220.852 450.434C220.852 450.434 217.01 459.414 222.054 460.135C227.097 460.856 234.97 453.325 234.97 453.325C234.97 453.325 235.26 459.173 240.785 458.452C246.309 457.731 254.712 453.325 254.712 453.325L244.872 435.88" fill="#099F6C"/>
<path d="M57.2872 363.822C57.2872 363.822 46.7196 361.311 42.1571 361.608C37.5946 361.898 37.835 365.264 39.9988 366.466C42.1571 367.669 43.5941 368.63 43.5941 368.63C43.5941 368.63 33.0321 367.534 29.4257 370.123C25.825 372.712 32.0704 374.635 32.0704 374.635C32.0704 374.635 25.2603 376.861 22.4646 378.471C16.2191 382.077 13.8148 389.497 22.2241 389.296C25.5845 389.212 37.9581 381.837 37.9581 381.837C37.9581 381.837 35.6825 388.412 38.5676 389.363C41.4471 390.302 46.9601 385.164 48.8835 382.888C47.0831 387.842 48.4026 390.246 53.9268 389.296C56.5771 388.843 65.7859 382.81 67.6143 382.888C69.4426 382.978 57.2872 363.822 57.2872 363.822Z" fill="#099F6C"/>
<path d="M345.087 441.599C345.087 441.599 355.655 439.089 360.217 439.385C364.785 439.681 364.545 443.042 362.381 444.244C360.217 445.446 358.78 446.413 358.78 446.413C358.78 446.413 369.342 445.312 372.949 447.901C376.549 450.484 370.304 452.407 370.304 452.407C370.304 452.407 377.114 454.632 379.915 456.248C386.155 459.855 388.559 467.274 380.156 467.073C376.79 466.989 364.422 459.614 364.422 459.614C364.422 459.614 366.697 466.19 363.812 467.14C360.927 468.085 355.414 462.941 353.491 460.666C355.297 465.614 353.972 468.018 348.453 467.073C345.803 466.62 336.588 460.587 334.766 460.666C332.937 460.749 345.087 441.599 345.087 441.599" fill="#099F6C"/>
<path d="M114.19 356.544C114.19 356.544 117.277 337.987 138.356 336.192C159.424 334.386 168.974 338.893 168.974 338.893C168.974 338.893 146.245 339.072 139.776 339.972C133.307 340.878 121.565 350.4 117.321 358.457C113.078 366.519 114.19 356.544 114.19 356.544" fill="#099F6C"/>
<path d="M144.471 331.038C144.471 331.038 130.94 321.309 121.401 319.268C108.446 316.506 103.979 322.293 101.843 323.836C98.0351 326.576 92.7177 329.836 89.3518 330.316C85.9914 330.797 82.4186 334.146 83.0001 337.216C83.5928 340.286 96.1397 337.859 97.4257 336.193C98.7229 334.521 104.37 325.636 109.766 323.596C115.172 321.555 125.98 323.713 133.305 327.918C140.63 332.117 145.432 334.817 145.432 334.817L144.471 331.038Z" fill="#099F6C"/>
<path d="M73.728 392.05C73.728 392.05 81.7963 409.54 90.9157 419.347C100.046 429.149 143.205 431.967 143.205 431.967L147.03 435.875C147.03 435.875 132.219 435.707 112.286 432.341C105.039 431.122 94.3991 427.801 88.7575 423.144C78.8665 414.986 73.8902 402.965 70.2894 395.042C64.6366 382.607 73.728 392.05 73.728 392.05Z" fill="#08865B"/>
<path d="M106.572 279.338C106.572 279.338 102.92 272.203 104.028 262.636C104.805 255.96 110.116 257.157 110.592 262.53C111.151 268.86 113.466 277.068 113.466 277.068C113.466 277.068 116.105 265.835 121.271 270.325C123.295 272.091 120.757 285.835 120.757 285.835C120.757 285.835 127.461 279.578 130.827 283.028C134.198 286.472 124.816 298.013 124.816 298.013C124.816 298.013 135.417 293.562 136.714 298.924C138.201 305.074 126.991 310.828 126.991 310.828C126.991 310.828 137.531 332.544 142.898 338.298C148.271 344.046 156.205 345.192 156.205 345.192C156.205 345.192 149.753 347.669 142.188 342.726C133.298 336.917 121.64 313.976 121.64 313.976C121.64 313.976 110.089 317.7 107.282 314.132C102.904 308.558 112.694 304.459 112.694 304.459C112.694 304.459 101.143 301.854 99.6496 299.198C96.4905 293.556 107.651 292.159 107.651 292.159C107.651 292.159 95.8698 288.077 96.7588 281.63C97.5025 276.263 106.572 279.338 106.572 279.338" fill="#099F6C"/>
<path d="M257.271 322.033C257.271 355.508 230.629 382.637 197.758 382.637C164.886 382.637 138.238 355.508 138.238 322.033C138.238 288.558 164.886 261.423 197.758 261.423C230.629 261.423 257.271 288.558 257.271 322.033Z" fill="#05C887"/>
<path d="M239.405 287.319C231.683 281.365 223.33 275.164 213.148 275.432C204.952 275.65 195.849 281.298 189.195 286.028C189.111 285.961 184.185 271.597 204.392 261.801C197.761 260.878 186.936 261.085 181.703 263.663C181.44 265.597 181.289 268.298 181.91 270.07C182.922 272.995 182.961 275.74 183.213 278.776C183.481 282.024 185.712 286.509 185.712 286.509C185.712 286.509 178.712 283.696 172.142 279.184C169.055 277.071 165.141 274.711 161.351 274.202C155.379 278.323 150.884 283.696 148.217 288.365C157.062 287.096 167.322 287.319 175.949 288.863C162.312 292.821 154.87 299.883 149.078 313.548C142.748 328.494 139.159 344.926 149.044 359.028C151.208 362.114 154.518 364.681 157.588 366.766C157.409 362.651 153.187 354.242 152.572 352.978C144.627 335.086 154.518 299.296 176.995 292.29C164.795 304.2 167.887 329.813 167.708 342.567C167.574 351.608 170.459 362.243 173.819 370.546C175.502 374.711 176.715 378.278 180.847 380.202C186.964 383.048 194.759 383.193 200.003 382.645C197.554 377.043 194.898 372.598 194.814 366.296C194.787 363.506 196.279 359.033 195.866 355.857C195.653 354.253 194.921 352.788 194.412 351.267C192.008 344.121 190.118 339.85 189.167 332.111C188.502 326.66 184.493 321.678 182.133 316.635C177.979 307.75 179.992 300.151 188.122 289.45C190.604 291.479 196.587 295.153 198.046 297.54C200.887 302.209 200.49 308.091 202.38 312.732C203.224 314.817 204.465 316.344 205.449 318.329C207.255 321.997 207.384 325.994 208.748 329.645C209.285 331.116 210.683 332.083 211.331 333.476C214.334 340.001 214.988 342.204 215.061 349.427C215.161 359.704 216.436 369.064 217.342 379.296C231.572 374.141 234.938 368.907 235.933 359.436C236.458 354.476 235.866 349.427 233.696 344.915C232.751 342.953 231.342 341.398 230.235 339.548C227.322 334.65 226.791 331.261 225.695 325.609C224.979 321.918 224.549 319.967 222.307 316.992C220.462 314.543 216.978 313.118 215.307 310.63C212.975 307.163 212.835 301.812 211.057 298.066C207.266 290.093 198.281 288.007 190.263 287.739C199.925 283.4 209.486 283.132 219.908 288.303C224.258 290.462 229.302 292.967 233.21 295.857C244.543 304.25 254.58 321.957 255.715 335.885C258.002 328.924 259.472 312.883 254.468 304.06C250.962 297.865 245.88 292.318 239.405 287.319Z" fill="#099F6C"/>
<path d="M180.396 286.629L180.401 287.071C179.909 287.837 180.004 288.955 180.888 289.419C184.203 291.141 191.998 289.822 191.288 284.728C190.505 279.165 181.475 283.151 180.396 286.629Z" fill="#088258"/>
<path d="M233.503 387.305C233.503 387.305 240.861 384.129 246.089 376.039C249.735 370.397 244.876 367.942 241.091 371.784C236.634 376.313 229.629 381.183 229.629 381.183C229.629 381.183 234.739 370.822 227.89 371.006C225.206 371.079 218.429 383.302 218.429 383.302C218.429 383.302 217.233 374.216 212.441 374.73C207.644 375.25 207.554 390.118 207.554 390.118C207.554 390.118 202.198 379.947 197.786 383.263C192.72 387.059 197.725 398.627 197.725 398.627C197.725 398.627 175.779 408.686 167.979 409.709C160.174 410.738 153.324 406.573 153.324 406.573C153.324 406.573 156.729 412.589 165.709 413.584C176.265 414.753 199.855 404.465 199.855 404.465C199.855 404.465 206.397 414.68 210.831 413.713C217.753 412.198 212.804 402.804 212.804 402.804C212.804 402.804 223.383 408.144 226.223 407.037C232.245 404.688 224.529 396.52 224.529 396.52C224.529 396.52 236.204 400.858 239.62 395.317C242.46 390.705 233.503 387.305 233.503 387.305" fill="#08865B"/>
<path d="M91.2929 333.253C65.1369 333.381 49.6435 343.009 49.6994 366.359C49.7609 389.719 80.787 399.705 105.087 414.617C129.375 429.529 143.985 447.65 162.834 450.194C181.687 452.738 201.659 435.204 189.275 402.831C176.89 370.457 130.616 333.068 91.2929 333.253" fill="#05C887"/>
<path d="M52.5664 351.211C52.5664 351.211 76.1895 349.668 83.0612 352.089C97.4923 357.177 109.659 381.275 118.644 386.414C127.635 391.552 137.286 384.049 144.515 395.192C159.986 419.028 168.138 418.413 172.617 422.88C177.096 427.348 182.083 439.363 182.083 439.363C182.083 439.363 170.688 439.145 164.196 432.726C157.711 426.308 149.285 412.821 141.58 404.479C133.875 396.126 119.382 403.322 112.824 393.302C106.271 383.288 83.9335 361.024 78.5379 359.631C73.1311 358.239 57.168 354.7 52.5664 351.211" fill="#099F6C"/>
<path d="M72.3711 335.597C72.3711 335.597 104.616 338.734 112.824 350.739C121.032 362.749 137.085 367.082 148.647 373.266C160.199 379.439 165.444 388.748 170.845 398.22C176.252 407.691 185.779 435.514 185.779 435.514C185.779 435.514 184.074 400.194 168.603 381.793C153.137 363.392 130.028 359.746 123.604 354.183C117.185 348.619 109.749 330.923 72.3711 335.597Z" fill="#099F6C"/>
<path d="M49.9922 370.129C49.9922 370.129 57.6746 386.422 73.7272 392.058C87.3252 396.828 103.579 402.76 110.479 412.83C117.384 422.905 137.591 425.752 143.205 431.975C163.344 454.289 177.183 443.219 177.183 443.219C168.611 441.513 159.637 445.053 143.713 424.175C136.176 414.295 119.665 419.892 112.464 408.978C105.268 398.063 96.9031 392.36 87.2079 389.716C63.6629 383.297 49.9922 370.129 49.9922 370.129Z" fill="#099F6C"/>
<path d="M182.163 435.909C179.468 435.976 177.93 438.878 177.181 441.339C176.952 442.105 177.74 442.96 178.528 442.686C180.899 441.853 183.974 439.656 183.784 436.815C183.751 436.267 182.895 435.887 182.163 435.909" fill="#08865B"/>
<path d="M177.582 442.487C177.582 442.487 185.533 448.23 190.582 455.621C195.625 463.019 198.745 469.985 206.668 470.707C214.596 471.428 224.924 466.625 232.852 468.308C240.775 469.985 243.9 476.231 252.304 475.269C260.713 474.307 266.953 469.27 266.953 469.27L262.631 465.423C262.631 465.423 256.145 469.51 251.342 469.51C246.539 469.51 236.671 460.86 228.519 461.582C220.361 462.297 213.881 466.385 209.072 464.942C204.269 463.499 199.707 457.494 195.625 451.735C191.538 445.971 183.615 436.376 183.615 436.376L177.582 442.487" fill="#08865B"/>
<path d="M234.965 419.279C234.965 452.754 261.613 479.889 294.484 479.889C327.35 479.889 354.003 452.754 354.003 419.279C354.003 385.81 327.35 358.669 294.484 358.669C261.613 358.669 234.965 385.81 234.965 419.279Z" fill="#05C887"/>
<path d="M252.848 384.566C260.564 378.617 268.917 372.411 279.11 372.685C287.296 372.897 296.398 378.55 303.057 383.28C303.136 383.213 308.067 368.855 287.855 359.053C294.492 358.131 305.311 358.338 310.55 360.915C310.813 362.85 310.963 365.55 310.348 367.317C309.325 370.247 309.292 372.992 309.035 376.028C308.766 379.277 306.541 383.761 306.541 383.761C306.541 383.761 313.547 380.949 320.111 376.437C323.197 374.317 327.111 371.958 330.896 371.449C336.874 375.576 341.363 380.949 344.03 385.617C335.196 384.343 324.925 384.566 316.298 386.11C329.935 390.068 337.382 397.13 343.175 410.801C349.504 425.741 353.094 442.179 343.208 456.275C341.045 459.367 337.729 461.933 334.659 464.013C334.838 459.903 339.06 451.494 339.68 450.225C347.626 432.333 337.729 396.548 315.252 389.543C327.458 401.452 324.366 427.066 324.55 439.819C324.673 448.855 321.788 459.495 318.433 467.798C316.75 471.964 315.537 475.531 311.405 477.449C305.283 480.295 297.494 480.451 292.25 479.898C294.698 474.295 297.354 469.845 297.433 463.543C297.472 460.759 295.968 456.28 296.381 453.116C296.599 451.505 297.326 450.04 297.841 448.52C300.245 441.368 302.135 437.102 303.085 429.369C303.756 423.907 307.765 418.93 310.119 413.881C314.279 404.997 312.261 397.404 304.125 386.702C301.654 388.732 295.671 392.4 294.212 394.787C291.366 399.456 291.763 405.344 289.873 409.99C289.023 412.07 287.782 413.596 286.804 415.581C284.998 419.243 284.863 423.241 283.51 426.892C282.962 428.363 281.565 429.341 280.927 430.728C277.919 437.253 277.27 439.456 277.198 446.68C277.086 456.951 275.817 466.317 274.917 476.543C260.681 471.388 257.31 466.16 256.314 456.688C255.8 451.729 256.387 446.68 258.556 442.168C259.501 440.2 260.916 438.651 262.012 436.806C264.93 431.902 265.462 428.508 266.558 422.861C267.273 419.171 267.704 417.219 269.94 414.245C271.791 411.79 275.274 410.365 276.946 407.882C279.278 404.415 279.412 399.065 281.196 395.318C284.986 387.34 293.972 385.254 301.984 384.991C292.328 380.658 282.761 380.384 272.35 385.556C267.994 387.714 262.951 390.219 259.048 393.11C247.709 401.497 237.673 419.204 236.532 433.138C234.251 426.177 232.78 410.13 237.785 401.307C241.29 395.117 246.373 389.571 252.848 384.566" fill="#099F6C"/>
<path d="M311.851 383.882L311.846 384.318C312.332 385.09 312.243 386.208 311.354 386.672C308.038 388.394 300.249 387.069 300.96 381.976C301.077 381.12 301.396 380.488 301.848 380.047C304.337 377.631 310.94 380.941 311.851 383.882" fill="#088258"/>
<path d="M354.622 403.809C360.616 408.467 363.803 410.094 364.11 419.342C364.317 425.504 358.48 434.388 354.784 439.756C357.971 439.364 360.688 439.488 360.901 439.51C364.809 433.264 369.696 424.111 369.154 418.101C368.349 409.082 363.937 402.501 354.007 396.244C343.724 389.77 347.717 383.368 342.919 374.36C338.111 365.358 326.705 361.545 317.395 366.823C309.26 371.436 301.438 380.606 301.438 380.606L312.011 385.856C312.011 385.856 319.436 370.066 327.487 370.547C335.528 371.028 335.427 380.326 340.677 390.362C343.193 395.171 349.534 399.845 354.622 403.809Z" fill="#088258"/>
<path d="M137.739 306.992C131.751 311.649 128.564 313.276 128.251 322.519C128.044 328.686 137.577 341.557 137.387 347.271C134.815 345.823 133.395 345.024 131.746 344.185C129.71 337.554 122.671 327.294 123.213 321.283C124.018 312.259 128.424 305.683 138.36 299.427C148.643 292.946 144.645 286.55 149.448 277.542C154.256 268.535 165.657 264.727 174.966 270.005C183.102 274.618 190.124 282.569 190.124 282.569L180.351 289.033C180.351 289.033 172.92 273.248 164.88 273.729C156.828 274.21 156.94 283.508 151.69 293.545C149.174 298.342 142.833 303.028 137.739 306.992Z" fill="#088258"/>
</svg>
